<svg xmlns="http://www.w3.org/2000/svg" width="200" height="200" fill="none" viewBox="0 0 200 200"><path fill="#d1faec" d="M200 100c0 55.228-44.772 100-100 100S0 155.228 0 100 44.772 0 100 0s100 44.772 100 100"/><path fill="#3c9" d="M138.187 77.153A7.692 7.692 0 0 0 132.784 64h14.601a7.692 7.692 0 0 1 5.417 13.153l-58.153 57.693a7.67 7.67 0 0 1-5.418 2.231H73.923l-.018-.033a7.68 7.68 0 0 0 6.128-2.199zM49.298 96.977q.186-.01.373-.01h-.363zM49.714 96.967a7.67 7.67 0 0 1 5.396 2.231l19.506 19.351 7.307-7.25-12.198-12.1a7.67 7.67 0 0 0-5.417-2.232zM132.754 64H132l-.032.042q.392-.041.786-.042"/><path fill="#fff" d="M138.23 66.275a7.69 7.69 0 0 1-.043 10.878l-58.154 57.693a7.693 7.693 0 0 1-10.835 0L44.275 110.12A7.692 7.692 0 1 1 55.11 99.198l19.506 19.351 52.736-52.318a7.69 7.69 0 0 1 10.878.044"/><path stroke="#124937" stroke-linecap="round" stroke-linejoin="round" stroke-width="2" d="M49.714 96.967a7.67 7.67 0 0 1 5.396 2.231l19.506 19.351 7.307-7.25M49.714 96.967a7.692 7.692 0 0 0-5.44 13.153l24.924 24.726a7.67 7.67 0 0 0 5.372 2.231m-24.856-40.11h14.594c1.958 0 3.917.743 5.417 2.231L81.923 111.3M49.714 96.967c-.143 0 .127 0 0 0m32.21 14.332 45.428-45.068A7.67 7.67 0 0 1 132.754 64M74.57 137.077a7.67 7.67 0 0 0 5.463-2.231l58.154-57.693A7.692 7.692 0 0 0 132.754 64M74.57 137.077h14.661a7.67 7.67 0 0 0 5.418-2.231l58.153-57.693A7.692 7.692 0 0 0 147.385 64h-14.631"/></svg>